<svg width="46" height="24" viewBox="0 0 46 24" fill="none" xmlns="http://www.w3.org/2000/svg">
<path d="M38.2169 23.9979C42.0191 23.9979 45.1388 20.9138 45.1388 17.1551H41.6291C41.6291 19.0826 40.0693 20.6247 38.1194 20.6247C36.1696 20.6247 34.6097 19.0826 34.6097 17.1551V13.6855H38.1194C41.9216 13.6855 45.0413 10.6015 45.0413 6.84277V0H38.1194C34.3172 0 31.1975 3.08406 31.1975 6.84277V17.1551C31.295 20.9138 34.3172 23.9979 38.2169 23.9979ZM34.7072 6.84277C34.7072 4.91523 36.2671 3.37319 38.2169 3.37319H41.7266V6.84277C41.7266 8.7703 40.1667 10.3123 38.2169 10.3123H34.7072V6.84277Z" fill="#888440"/>
<path d="M22.7156 23.9979C26.5178 23.9015 29.5401 20.9138 29.5401 17.1551V0H26.1279V17.1551C26.1279 19.0826 24.4705 20.6247 22.5207 20.6247C20.6683 20.5283 19.2059 18.9863 19.2059 17.0587V0H15.5987V17.0587C15.5987 20.9138 18.816 24.0942 22.7156 23.9979Z" fill="#888440"/>
<path d="M6.92194 20.6247C4.9721 20.6247 3.41222 19.0826 3.41222 17.1551H0C0 20.9138 3.11975 23.9979 6.92194 23.9979C10.7241 23.9979 13.8439 20.9138 13.8439 17.1551C13.8439 13.3964 10.7241 12.0471 6.92194 10.3123C5.16708 9.54132 3.50972 8.7703 3.50972 6.84277C3.50972 4.91523 5.06959 3.37319 7.01943 3.37319C8.96927 3.37319 10.5291 4.91523 10.5291 6.84277H14.0389C14.0389 3.08406 10.9191 0 7.11692 0C3.11975 0 0 3.08406 0 6.84277C0 10.6015 3.11975 11.9507 6.92194 13.6855C8.6768 14.4565 10.4317 15.2276 10.4317 17.1551C10.4317 19.0826 8.87178 20.6247 6.92194 20.6247Z" fill="#888440"/>
</svg>
